<?xml version="1.0" encoding="UTF-8"?>
<svg id="Layer_1" data-name="Layer 1" xmlns="http://www.w3.org/2000/svg" viewBox="0 0 1036.94 1080">
  <defs>
    <style>
      .cls-1 {
        font-family: 'Century Gothic', 'Futura', AvantGardeLT-Bold, 'AvantGarde LT Medium', 'Trebuchet MS', Arial, sans-serif;
        font-size: 152.92px;
        font-weight: 700;
      }

      .cls-2, .cls-3 {
        stroke-width: 0px;
      }

      .cls-2, .cls-4 {
        fill: #024067;
      }

      .cls-3, .cls-5 {
        fill: #01aeee;
      }
    </style>
  </defs>
  <g>
    <path class="cls-2" d="M395.31,576.57c-2.83,1.93-5.23,1.3-7.44,1.25-23.01-.46-45.8,1.46-68.26,6.45-4.53,1-6.07-1.62-7.93-4.5-20.08-30.99-32.34-64.8-35.95-101.57-.52-5.27-2.27-6.66-7.25-6.76-6.68-.13-13.6,1.59-20.05-1.75-.6-.31-1.66.02-2.42.29-18.9,6.76-37.65,3.51-56.3-1.09-3.85-.95-7.66-2.66-11.06-4.74-9.41-5.75-9.32-15.67.11-21.38,7.8-4.72,16.64-6.26,25.49-7.4,14.35-1.85,28.55-3.04,42.6,2.92,3.99,1.69,9.24-1.4,14.11-1.38,13.81.06,13.95-.09,16.19-13.79,7.25-44.29,26.04-83.13,55.29-116.98,2.2-2.55,1.92-3.82-.05-6.19-4.44-5.36-10.37-9.49-13.36-16.07-.29-.63-1.23-1.05-1.95-1.39-20.85-9.83-32.52-27.72-41.58-47.74-2.39-5.27-2.35-11.08,2.17-15.42,4.63-4.45,10.21-3.33,15.49-1,16.93,7.48,32.78,17.3,43.36,32.36,6.51,9.27,15.09,15.35,22.78,22.85,2.43,2.37,3.82,1.95,6.24.08,38.36-29.66,81.51-47.55,129.93-52.1,3.95-.37,4.74-1.74,4.9-5.37.29-6.92-1.23-14,1.56-20.76.32-.79-.34-2.03-.67-3.02-7.09-21.57-3-42.33,4.84-62.7,1.98-5.15,5.64-9.18,11.7-9.47,6.42-.3,10.6,3.7,12.68,9,8.07,20.47,12.84,41.41,4.81,63.08-1.25,3.38,1.35,5.05,1.38,7.64.08,5.31.36,10.62.19,15.91-.13,3.94,1.12,5.41,5.31,5.81,44.08,4.21,83.99,19.68,120.09,45.19.52.37,1.05.72,1.57,1.09,11.91,8.44,11.69,8.18,22.72-1.21,5.56-4.74,9.81-10.18,14.28-15.9,11.49-14.69,26.54-25.55,43.81-32.93,5.03-2.15,10.53-2.87,14.96,1.39,4.6,4.42,4.23,10.15,2.06,15.43-7.52,18.3-18.93,34.32-35.73,44.41-9.74,5.85-14.07,15.58-22.33,22.03-3.2,2.5.54,4.01,1.75,5.47,19.26,23.25,34.58,48.75,44.5,77.37,5.37,15.5,9.19,31.37,10.5,47.72.34,4.3,1.93,5.16,5.78,5.22,6.94.11,14.05-1.01,20.75,1.97,1.28.57,2.43-.23,3.62-.66,22.2-8.06,43.84-4.37,65.16,3.47,5.08,1.87,9.39,5.26,9.66,11.48.29,6.63-4.33,9.88-9.39,12.39-13.49,6.67-28.18,7.42-42.82,7.99-7.85.3-15.76.39-22.88-3.89-.68-.41-1.89-.93-2.3-.63-6.9,5.03-14.82,2.43-22.27,2.92-3.73.25-4.46,1.89-4.75,5.1-3.92,43.65-19.19,82.8-46.78,116.98-1.74,2.16-1.52,3.4,0,5.37,4.39,5.68,10.23,10.21,13.3,16.94.65,1.42,2.39,1.56,3.72,2.2,8.74,4.15,15.38,10.83,23.42,19.2-9.46,0-16.98.31-24.46-.08-8.67-.45-17.31-1.61-25.98-2.25-5.25-.38-7.2-4.89-10.23-7.88-3.34-3.28-5.86-4.31-9.01-.01-2.83,3.85-6.44,4.24-11.22,3.3-27.23-5.38-53.76-13.47-81.39-19.96,2.1-3.02,5.02-3.62,7.41-4.89,48.47-25.79,80.83-64.32,91-118.96,9.68-51.97-4.43-98.13-39.35-137.46-55.56-62.59-145.78-79.14-218.6-37.95-56.81,32.13-89.16,81.56-89.17,148.43,0,42.07,15.91,78.53,44.95,109.11,2.26,2.38,4.45,4.84,6.83,7.42ZM652.78,301.02c-80.51-92.71-224.03-72.92-283.26,13.2,39.37-37.36,85.49-58.57,139.48-61.07,53.89-2.49,101.8,13.89,143.78,47.87ZM695.98,352.44c16.97,30.94,26.89,63.88,28.04,99.18,1.15,35.25-7.65,68.25-23.74,99.5,39.3-62.14,35.6-144.73-4.3-198.69ZM341.28,352.36c-38.28,40.96-42.63,153.29-6.54,194.07-33.37-66.99-26.19-131.02,6.54-194.07Z"/>
    <path class="cls-3" d="M550.81,586.09c-27.95-2.27-50.86-2.54-73.75-3.04-4.31-.09-7.62-1.73-10.67-4.76-20.78-20.6-41.12-41.69-64.67-59.31-6.78-5.07-9.95-12.54-10.16-21.09-.47-19.4,3.17-38.4,5.69-57.51,1.77-13.44,3.82-26.85,5.46-40.31,1.56-12.73,8.44-21.19,19.59-27.06,26.47-13.95,53.08-27.58,80.2-40.24,10.55-4.92,20.2-5.64,30.92-.61,29.01,13.63,57.45,28.29,85.38,44,12.5,7.03,14.98,18.98,16.42,31.27,2.41,20.64,5.77,41.14,8.5,61.72,1.14,8.6,2.23,17.24,1.87,25.98-.37,9.11-3.11,17.4-10.48,22.99-22.42,17-41.67,37.4-61.59,57.05-8.09,7.98-16.57,12.16-22.72,10.9ZM558.75,413.86c-2.28-.46-5.26-1.57-7.49-4-5.58-6.1-13.59-8.98-19.23-15.27-3.43-3.82-4.14-6.13-.46-9.27,3.8-3.25,3.81-6.53.35-9.68-3.75-3.42-7.86-6.44-11.78-9.67-1.61-1.32-2.98-1.13-4.5.2-3.36,2.92-6.91,5.63-10.17,8.65-2.45,2.27-3.99,4.85-1.73,8.39,5.63,8.83,5.55,8.88-2.67,14.49-.53.36-.99.83-1.54,1.12-8.17,4.34-13.57,12.83-23.13,15.22-2.77.69-2.81,4.06-3.39,6.44-.59,2.45,1.91,2.41,3.33,2.98,2.59,1.03,4.11,2.89,4.94,5.45,2.28,7.06,4.54,14.13,6.87,21.17.73,2.21,1.08,4.3-1.53,5.37-2.53,1.03-3.33-1.22-4.25-2.78-6.27-10.62-11.16-21.91-16.11-33.17-1.15-2.61-1.37-5.08,2.52-5.56,3.21-.39,3.46-2.16,2.72-4.99-2.76-10.57-6.97-12.06-15.41-5.26-1.16.93-2.27,1.91-3.43,2.84-1.82,1.46-2.75,3.06-1.62,5.5,6.77,14.62,11.77,30.02,19.19,44.36,3.44,6.64,3.05,7.42-4.4,9.1-5.54,1.25-11.46.96-16.52,4.16-4.64,2.94-6.5,7.82-3.55,11.16,6.17,6.99,12.71,13.66,19.16,20.41,1.49,1.56,3,1.62,5.04.33,11.77-7.45,24.78-12.7,35.97-21.31,6.53-5.03,14.58-6.11,22.05-.97,12.24,8.42,24.91,16,38.52,22.08,3.26,1.46,5,1.1,7.09-1.2,5.14-5.65,10.27-11.31,15.5-16.88,5.72-6.1,4.38-11.74-3.76-14.11-4.45-1.3-9.16-1.66-13.71-2.66-7.17-1.56-7.85-2.75-5.05-9.48,5.77-13.91,11.72-27.74,17.54-41.63,1.04-2.48,2.82-5.04,1.03-7.81-2.89-4.47-7.1-8.11-12.24-8.16-4.62-.04-5.45,5.22-6.9,8.92-.15.39-.31.81-.36,1.22-.37,3.69-3.01,4.19-6.9,4.3ZM565.01,517.46c-1.06-3.24,2.37-8.17-2.39-10.15-13.76-5.72-25.89-14.5-39.5-20.46-4-1.75-7.65-1.48-11.54.55-12.01,6.29-23.5,13.6-36.2,18.53-3.22,1.25-4.38,3.47-4.18,6.94.34,5.91.76,11.85-.79,17.72-.71,2.71-3.11,5.78-.05,8.22,3.21,2.56,6.45.53,9.43-1.1,1.3-.71,2.43-1.7,3.68-2.5,26.7-17.12,42.64-16.25,68.4-.55,2.71,1.65,5.29,3.58,8.14,4.93,2.11,1.01,4.62,1.09,6.65-.53,2.32-1.85,1.45-4.26.66-6.43-1.77-4.85-2.78-9.78-2.32-15.16Z"/>
    <path class="cls-3" d="M175.65,666.61c26.89-23.23,57.08-40.91,90.51-53.05,49.21-17.88,100.04-24.39,152.09-20.88,50.56,3.41,99.81,14.44,148.71,27.17,44.11,11.49,87.87,24.5,133.29,30.18,36.81,4.6,73.25,3.82,108.81-8.12,11.43-3.84,22.31-8.95,33.77-16.69-11.68,19.68-26.03,34.31-43.93,45.44-22.05,13.72-46.28,20.74-72.03,23.02-41.32,3.66-81.1-4.48-120.3-16.13-38.22-11.36-76.12-23.76-114.34-35.11-36.08-10.71-72.86-17.74-110.53-20.34-69.19-4.79-134.62,8.44-196.58,39.33-3.22,1.6-6.32,3.45-9.47,5.18ZM797.08,665.4c-45.9,24.22-94.53,21.72-143.61,15.06,49.5,10.15,98.66,17.16,143.61-15.06Z"/>
    <path class="cls-3" d="M708.62,710.08c-13.63,7.55-28.14,12.69-43.42,15.35-42.83,7.43-84.88,3.71-126.23-9.35-18.41-5.81-36.72-11.88-54.49-19.48-1.1-.47-2.3-.71-3.68-.51,25.86,17.48,53.78,30.57,83.53,39.86,30.13,9.41,60.76,13.16,92.26,8.21-13.02,6.12-26.72,9.26-40.89,10.66-43.61,4.33-84.57-6.72-124.77-21.75-33.6-12.56-65.77-28.48-98.76-42.49-46.48-19.73-94.57-31.2-145.42-28.76-4.01.19-8.03.43-14.06.76,6-2.27,10.24-4.05,14.58-5.49,47.06-15.55,95.24-19.58,144.45-14.85,57.35,5.52,111.39,23.78,165.46,42,36.06,12.15,72.53,22.49,110.58,25.93,13.5,1.22,27.12.91,40.85-.09Z"/>
    <path class="cls-3" d="M536.81,427.17c-11.96-2.72-25.64-1.86-39.33.31-3.04.48-6.36.26-7.07-3.6-.66-3.61,2.85-3.69,4.99-4.61,15.96-6.89,31.91-4.65,47.83.21,2.39.73,2.67,2.46,2.07,4.55-.77,2.68-2.19,3.33-8.49,3.14Z"/>
    <path class="cls-3" d="M537.72,451.9c.2,3.87-1.46,5.38-5.78,2.1-.84-.64-1.84-1.07-2.66-1.73-7.52-6.01-15.12-6.51-23.19-.89-1.8,1.25-4.62,4.11-6.6,1.31-1.93-2.73-1.7-6.6.44-9.58,9.1-12.72,28.61-11.49,36.65,2.21,1.02,1.73,1.16,3.59,1.15,6.58Z"/>
    <path class="cls-3" d="M548.71,447.81c2.06-7.11,4.08-14.24,6.19-21.34,1.16-3.9,4.29-2.69,6.88-2.35,2.93.39,4.06,2.32,2.95,5.05-3.01,7.46-6.17,14.86-9.3,22.27-.63,1.48-1.58,2.65-3.41,1.7-2.12-1.1-4.26-2.25-3.32-5.33Z"/>
    <path class="cls-3" d="M561.6,482.04c-5.12-.5-10.68-1.23-15.38-5.02-2.38-1.91-2.91-4.28-1.83-6.72,1.46-3.29,3.66-.61,5.24.03,5.09,2.07,10.33,3.45,15.71,4.51,2.03.4,5.63-.22,5.4,2.95-.25,3.43-3.4,4.43-6.68,4.24-.63-.04-1.26,0-2.46,0Z"/>
    <path class="cls-3" d="M480.27,472.26c3.35.84,9.49-2.33,9.98,2.98.48,5.19-5.96,4.54-9.78,5.37-3.47.76-7.09.79-10.64,1.17-3.34.36-5.4-1.63-6.12-4.34-.91-3.45,2.48-3.15,4.46-3.85,3.84-1.36,7.88-1.08,12.1-1.34Z"/>
  </g>
  <text class="cls-1" transform="translate(107.42 918.37)"><tspan class="cls-4" x="0" y="0">HELM </tspan><tspan class="cls-5" x="457.69" y="0">MCP</tspan></text>
</svg>